<svg width="238" height="58" viewBox="0 0 238 58" fill="none" xmlns="http://www.w3.org/2000/svg">
<g clip-path="url(#clip0_10_46)">
<path d="M95.3633 34.4248L78.5441 18.1097C77.2377 16.8045 75.1149 16.3966 73.237 16.9676C71.3592 17.5387 70.1345 19.007 70.1345 20.7201V41.1139H76.0947V23.4937L92.9139 39.7271C93.812 40.6245 95.1183 41.1139 96.5063 41.1139C97.0779 41.1139 97.6494 41.0323 98.2209 40.8692C100.099 40.2982 101.323 38.8298 101.323 37.1167V17.0492H95.3633V34.4248ZM105.487 23.1674V40.6245H111.448V23.1674C111.448 22.4332 112.182 21.8622 112.999 21.8622H133.166V16.8045H112.999C108.835 16.8045 105.487 19.6596 105.487 23.1674Z" fill="white"/>
<path d="M133.166 26.4304H113.734V31.488H133.166V26.4304ZM138.309 21.8622H150.23V40.7061H156.19V21.8622H168.11V16.8045H138.309V21.8622ZM177.5 31.4065V26.4304C177.5 23.9016 179.949 21.8622 182.889 21.8622H200.524V16.8045H182.889C176.602 16.8045 171.458 21.128 171.458 26.4304V31.4065C171.458 36.7089 176.602 41.0324 182.889 41.0324H193.911V35.9747H182.889C179.868 35.8931 177.5 33.8537 177.5 31.4065Z" fill="white"/>
<path d="M194.646 26.3488H183.46V31.4065H194.646C195.462 31.4065 196.197 31.8143 196.197 32.3854V40.6245H202.157V32.3854C202.239 29.0408 198.81 26.3488 194.646 26.3488Z" fill="#EFDA1C"/>
<path d="M225.753 16.9677H218.323C211.546 16.9677 206.076 21.6174 206.076 27.2461V30.5907C206.076 36.301 211.546 40.9508 218.323 40.9508H225.753C232.53 40.9508 238 36.301 238 30.5907V27.2461C238 21.6174 232.448 16.9677 225.753 16.9677ZM231.958 30.6723C231.958 33.609 229.182 35.9747 225.671 35.9747H218.241C214.812 35.9747 211.955 33.609 211.955 30.6723V27.3277C211.955 24.391 214.731 22.0253 218.241 22.0253H225.671C229.1 22.0253 231.958 24.391 231.958 27.3277V30.6723Z" fill="white"/>
<path d="M46.3753 58H11.6755C5.22539 58 0 52.7792 0 46.3347V11.6653C0 5.22082 5.22539 0 11.6755 0H46.4569C52.907 0 58.1324 5.22082 58.1324 11.6653V46.4163C58.0508 52.7792 52.8254 58 46.3753 58Z" fill="#EFDA1C"/>
<path d="M35.8429 19.1702C35.4347 19.3333 35.5979 19.8228 36.0062 19.7412L38.2106 19.6596L33.8017 31.4065L29.6377 23.82C28.3314 21.3727 25.882 19.7412 23.106 19.5781H21.8813C18.6154 19.8228 15.9211 21.8622 14.778 24.962L8.08302 43.5612C8.00137 43.7243 8.16467 43.8059 8.24631 43.8059H18.3705C18.4521 43.8059 18.5338 43.7243 18.5338 43.6428L22.8611 31.9775L27.025 39.564C28.5763 42.4191 31.5973 44.0506 34.7815 43.8059C37.9657 43.5612 40.7417 41.5218 41.8847 38.5035L48.8247 19.5781L50.7026 14.4388C50.7842 14.2757 50.6209 14.1125 50.4576 14.1941L35.8429 19.1702Z" fill="white"/>
<mask id="mask0_10_46" style="mask-type:luminance" maskUnits="userSpaceOnUse" x="8" y="14" width="43" height="30">
<path d="M35.8429 19.1702C35.4347 19.3333 35.5979 19.8228 36.0062 19.7412L38.2106 19.6596L33.8017 31.4065L29.6377 23.82C28.3314 21.3727 25.882 19.7412 23.106 19.5781H21.8813C18.6154 19.8228 15.9211 21.8622 14.778 24.962L8.08302 43.5612C8.00137 43.7243 8.16467 43.8059 8.24631 43.8059H18.3705C18.4521 43.8059 18.5338 43.7243 18.5338 43.6428L22.8611 31.9775L27.025 39.564C28.5763 42.4191 31.5973 44.0506 34.7815 43.8059C37.9657 43.5612 40.7417 41.5218 41.8847 38.5035L48.8247 19.5781L50.7026 14.4388C50.7842 14.2757 50.6209 14.1125 50.4576 14.1941L35.8429 19.1702Z" fill="white"/>
</mask>
<g mask="url(#mask0_10_46)">
<path d="M36.741 48.6188L17.9623 12.5626L4.98045 46.2532H12.4919L17.554 31.8144C18.2888 29.5302 21.3914 29.3671 22.5345 31.488L29.5561 45.3558L36.741 48.6188Z" fill="#FEF3CB"/>
</g>
<mask id="mask1_10_46" style="mask-type:luminance" maskUnits="userSpaceOnUse" x="8" y="14" width="43" height="30">
<path d="M35.8429 19.1702C35.4347 19.3333 35.5979 19.8228 36.0062 19.7412L38.2106 19.6596L33.8017 31.4065L29.6377 23.82C28.3314 21.3727 25.882 19.7412 23.106 19.5781H21.8813C18.6154 19.8228 15.9211 21.8622 14.778 24.962L8.08302 43.5612C8.00137 43.7243 8.16467 43.8059 8.24631 43.8059H18.3705C18.4521 43.8059 18.5338 43.7243 18.5338 43.6428L22.8611 31.9775L27.025 39.564C28.5763 42.4191 31.5973 44.0506 34.7815 43.8059C37.9657 43.5612 40.7417 41.5218 41.8847 38.5035L48.8247 19.5781L50.7026 14.4388C50.7842 14.2757 50.6209 14.1125 50.4576 14.1941L35.8429 19.1702Z" fill="white"/>
</mask>
<g mask="url(#mask1_10_46)">
<path d="M30.3726 24.7989L34.6998 32.7117C35.5163 34.18 37.7208 34.0985 38.2923 32.4669L43.2727 19.8228H37.1492L30.3726 24.7989Z" fill="#FEF3CB"/>
</g>
</g>
<defs>
<clipPath id="clip0_10_46">
<rect width="238" height="58" fill="white"/>
</clipPath>
</defs>
</svg>
